<mxfile host="Electron" agent="Mozilla/5.0 (Windows NT 10.0; Win64; x64) AppleWebKit/537.36 (KHTML, like Gecko) draw.io/24.7.8 Chrome/128.0.6613.36 Electron/32.0.1 Safari/537.36" version="24.7.8">
  <diagram name="Seite-1" id="TgMerY39qsRB6GlR0Noa">
    <mxGraphModel dx="759" dy="683" grid="1" gridSize="10" guides="1" tooltips="1" connect="1" arrows="1" fold="1" page="1" pageScale="1" pageWidth="827" pageHeight="1169" math="0" shadow="0">
      <root>
        <mxCell id="0" />
        <mxCell id="1" parent="0" />
        <mxCell id="WNQh9Mqm848nx5cN8dcJ-7" value="" style="rounded=0;whiteSpace=wrap;html=1;" vertex="1" parent="1">
          <mxGeometry x="310" y="260" width="140" height="160" as="geometry" />
        </mxCell>
        <mxCell id="WNQh9Mqm848nx5cN8dcJ-6" value="" style="rounded=0;whiteSpace=wrap;html=1;" vertex="1" parent="1">
          <mxGeometry x="160" y="260" width="140" height="160" as="geometry" />
        </mxCell>
        <mxCell id="WNQh9Mqm848nx5cN8dcJ-1" value="Application" style="rounded=0;whiteSpace=wrap;html=1;" vertex="1" parent="1">
          <mxGeometry x="353" y="180" width="120" height="60" as="geometry" />
        </mxCell>
        <mxCell id="WNQh9Mqm848nx5cN8dcJ-2" value="Currency" style="rounded=0;whiteSpace=wrap;html=1;strokeColor=#00994D;" vertex="1" parent="1">
          <mxGeometry x="320" y="270" width="120" height="60" as="geometry" />
        </mxCell>
        <mxCell id="WNQh9Mqm848nx5cN8dcJ-3" value="Console Output" style="rounded=0;whiteSpace=wrap;html=1;" vertex="1" parent="1">
          <mxGeometry x="170" y="350" width="120" height="60" as="geometry" />
        </mxCell>
        <mxCell id="WNQh9Mqm848nx5cN8dcJ-4" value="GUI" style="rounded=0;whiteSpace=wrap;html=1;strokeColor=#00994D;" vertex="1" parent="1">
          <mxGeometry x="170" y="270" width="120" height="60" as="geometry" />
        </mxCell>
        <mxCell id="WNQh9Mqm848nx5cN8dcJ-5" value="Calculation" style="rounded=0;whiteSpace=wrap;html=1;" vertex="1" parent="1">
          <mxGeometry x="320" y="350" width="120" height="60" as="geometry" />
        </mxCell>
        <mxCell id="WNQh9Mqm848nx5cN8dcJ-8" value="Output" style="text;html=1;align=center;verticalAlign=middle;whiteSpace=wrap;rounded=0;fillColor=default;" vertex="1" parent="1">
          <mxGeometry x="170" y="251" width="40" height="15" as="geometry" />
        </mxCell>
        <mxCell id="WNQh9Mqm848nx5cN8dcJ-9" value="Math" style="text;html=1;align=center;verticalAlign=middle;whiteSpace=wrap;rounded=0;fillColor=default;" vertex="1" parent="1">
          <mxGeometry x="320" y="251" width="40" height="15" as="geometry" />
        </mxCell>
        <mxCell id="WNQh9Mqm848nx5cN8dcJ-10" value="" style="rounded=0;whiteSpace=wrap;html=1;strokeColor=#00994D;" vertex="1" parent="1">
          <mxGeometry x="460" y="260" width="140" height="80" as="geometry" />
        </mxCell>
        <mxCell id="WNQh9Mqm848nx5cN8dcJ-11" value="Save List" style="rounded=0;whiteSpace=wrap;html=1;strokeColor=#00994D;" vertex="1" parent="1">
          <mxGeometry x="470" y="270" width="120" height="60" as="geometry" />
        </mxCell>
        <mxCell id="WNQh9Mqm848nx5cN8dcJ-13" value="File I/O" style="text;html=1;align=center;verticalAlign=middle;whiteSpace=wrap;rounded=0;fillColor=default;strokeColor=#00994D;" vertex="1" parent="1">
          <mxGeometry x="470" y="251" width="50" height="15" as="geometry" />
        </mxCell>
        <mxCell id="WNQh9Mqm848nx5cN8dcJ-14" value="| done&lt;div&gt;&lt;font color=&quot;#00994d&quot;&gt;| planned&lt;/font&gt;&lt;/div&gt;" style="text;html=1;align=left;verticalAlign=middle;whiteSpace=wrap;rounded=0;" vertex="1" parent="1">
          <mxGeometry x="170" y="440" width="60" height="30" as="geometry" />
        </mxCell>
      </root>
    </mxGraphModel>
  </diagram>
</mxfile>
